<svg xmlns="http://www.w3.org/2000/svg" fill="#161a33" viewBox="0 0 110 27"><path d="M10.97 3.68L1.2 24.66h3.44L7 19.46h7.99l2.29 5.2h3.46zM70 4.03c-1.5 0-2.92.25-4.24.76a9.94 9.94 0 00-3.46 2.2 9.84 9.84 0 00-2.32 3.4c-.51 1.3-.77 2.7-.77 4.22 0 1.5.25 2.9.76 4.22a10.1 10.1 0 002.2 3.43c.98.98 2.11 1.72 3.4 2.2 1.3.5 2.78.74 4.43.74 2.96 0 5.25-.79 6.88-2.36 1.62-1.57 2.44-3.78 2.44-6.62a38.37 38.37 0 00-.06-1.9h-8v2.77h4.86v.3c0 1.5-.54 2.69-1.61 3.56-1.08.87-2.55 1.31-4.43 1.31-2.2 0-4-.7-5.38-2.12a7.65 7.65 0 01-2.07-5.56c0-2.24.69-4.06 2.07-5.45a7.2 7.2 0 015.36-2.11c1.05 0 2 .2 2.86.58.86.38 1.62.97 2.3 1.76l2.4-1.8a9.48 9.48 0 00-3.36-2.66A10.02 10.02 0 0070 4.03zm-47.38.45v20.18h3.07V15.6H27.59c1.47 0 2.55-.07 3.24-.23.7-.16 1.3-.42 1.82-.79a4.57 4.57 0 001.48-1.9c.36-.8.54-1.69.54-2.64 0-.96-.18-1.83-.54-2.62a4.7 4.7 0 00-1.48-1.9 4.95 4.95 0 00-1.82-.79c-.7-.16-1.77-.25-3.24-.25zm60.13 0v20.18h11.26v-2.94h-7.98V15.2h7.98v-2.88h-7.98V7.27h7.98V4.48zm15.05 0v20.18h11.25v-2.94h-7.97V15.2h7.97v-2.88h-7.97V7.27h7.97V4.48zM25.9 7.3h.84c1.73 0 2.92.22 3.57.66.65.44.98 1.2.98 2.27 0 1-.3 1.7-.91 2.1-.61.39-1.82.59-3.64.59h-.84zM11 9.84a25 25 0 00.75 2.3l2.07 4.6H8.2l2.07-4.6a15.18 15.18 0 00.73-2.3z" /><path d="M46.11 4.41a10.67 10.67 0 00-10.67 10.62 10.67 10.67 0 0021.35 0c0-5.85-4.8-10.62-10.68-10.62zm0 3.12a7.5 7.5 0 110 15 7.5 7.5 0 110-15z" /><circle cx="46.16" cy="15.53" r="3.51" fill="#4492fd" paint-order="fill markers stroke"/><circle cx="58.38" cy="3.19" r="2.11" fill="#4492fd" paint-order="fill markers stroke"/></svg>
