<svg xmlns="http://www.w3.org/2000/svg" viewBox="0 0 76.19 16.26"><defs><filter id="a" x="-.03" width="1.06" y="-.17" height="1.33" color-interpolation-filters="sRGB"><feGaussianBlur stdDeviation="3.19"/></filter></defs><g font-weight="700" font-size="16.93" font-family="Nunito" letter-spacing="2.54" word-spacing="0"><path style="line-height:3.45;-inkscape-font-specification:'Nunito Bold'" d="M109.87 7.65c-1.07 0-1.94.36-2.63 1.09-.64.68-.96 1.69-.96 3v38.09c0 2.64 1.28 3.96 3.84 3.96 2.52 0 3.78-1.32 3.78-3.96V21.67l22.85 29.7c.68.85 1.3 1.46 1.85 1.85.6.38 1.39.57 2.37.57 1.02 0 1.84-.34 2.43-1.02.6-.68.9-1.62.9-2.81v-38.4c0-2.6-1.26-3.9-3.78-3.9-2.56 0-3.84 1.3-3.84 3.9v28.1l-22.84-29.64a8.73 8.73 0 00-1.8-1.8c-.47-.38-1.2-.57-2.17-.57zm57.98 0c-2.73 0-4.1 1.4-4.1 4.22v37.7c0 2.82 1.37 4.22 4.1 4.22 2.73 0 4.1-1.4 4.1-4.22v-37.7c0-2.81-1.37-4.22-4.1-4.22zm76.95 0c-2.73 0-4.1 1.4-4.1 4.22v37.7c0 2.82 1.37 4.22 4.1 4.22 2.74 0 4.1-1.4 4.1-4.22V33.83h23.23v15.74c0 2.82 1.37 4.22 4.1 4.22 2.73 0 4.1-1.4 4.1-4.22v-37.7c0-2.81-1.37-4.22-4.1-4.22-2.73 0-4.1 1.4-4.1 4.22v15.11H248.9v-15.1c0-2.82-1.36-4.23-4.1-4.23zm-233.5.51c-2.43 0-3.65 1.13-3.65 3.4 0 2.3 1.22 3.45 3.65 3.45h20.67L9.44 45.54a7.76 7.76 0 00-1.6 3.71c-.08 1.2.22 2.18.9 2.95.73.72 1.8 1.08 3.2 1.08H39.4c2.43 0 3.64-1.15 3.64-3.45 0-2.26-1.21-3.4-3.64-3.4H17.76L40.3 15.92a7.3 7.3 0 001.6-3.71 3.51 3.51 0 00-.96-2.88c-.68-.77-1.73-1.16-3.14-1.16zm51.49 0c-2.9 0-4.36 1.45-4.36 4.36v36.41c0 2.9 1.45 4.35 4.36 4.35h22.84c2.22 0 3.33-1.08 3.33-3.26 0-2.18-1.1-3.26-3.33-3.26H66.3V33.63h17.92c2.22 0 3.33-1.08 3.33-3.26 0-2.17-1.1-3.26-3.33-3.26H66.3V14.69h19.33c2.22 0 3.33-1.1 3.33-3.33 0-2.13-1.1-3.2-3.33-3.2zm126.97 0c-2.35 0-3.52 1.13-3.52 3.4 0 2.3 1.17 3.45 3.52 3.45h12.48v34.56c0 2.82 1.36 4.22 4.1 4.22 2.72 0 4.09-1.4 4.09-4.22V15.01h12.48c2.35 0 3.52-1.15 3.52-3.46 0-2.26-1.17-3.39-3.52-3.39z" transform="scale(.26458)" fill="#999" filter="url(#a)"/><path style="line-height:3.45;-inkscape-font-specification:'Nunito Bold'" d="M29.07.35c-.28 0-.51.1-.7.29-.16.18-.25.44-.25.8V11.5c0 .7.34 1.05 1.02 1.05.66 0 1-.35 1-1.05V4.06l6.04 7.85c.18.23.35.4.5.5.15.1.36.15.62.15.27 0 .48-.1.64-.27.16-.19.24-.43.24-.75V1.38c0-.69-.33-1.03-1-1.03-.68 0-1.02.34-1.02 1.03v7.43L30.12.97a2.3 2.3 0 00-.48-.47c-.12-.1-.31-.15-.57-.15zm15.34 0c-.72 0-1.08.37-1.08 1.12v9.97c0 .74.36 1.12 1.08 1.12.72 0 1.09-.38 1.09-1.12V1.47c0-.75-.37-1.12-1.09-1.12zm20.36 0c-.72 0-1.08.37-1.08 1.12v9.97c0 .74.36 1.12 1.08 1.12.72 0 1.08-.38 1.08-1.12V7.27H72v4.17c0 .74.36 1.12 1.09 1.12.72 0 1.08-.38 1.08-1.12V1.47c0-.75-.36-1.12-1.08-1.12-.73 0-1.09.37-1.09 1.12v4h-6.15v-4c0-.75-.36-1.12-1.08-1.12zM3 .48c-.64 0-.97.3-.97.9 0 .61.33.91.97.91h5.47L2.5 10.37c-.25.34-.4.67-.42.98-.03.32.05.58.23.78.2.2.48.3.85.3h7.26c.65 0 .97-.31.97-.92 0-.6-.32-.9-.97-.9H4.7l5.96-8.08c.26-.35.4-.68.42-.98a.93.93 0 00-.25-.76c-.18-.2-.46-.3-.83-.3zm13.62 0c-.77 0-1.15.39-1.15 1.15v9.64c0 .77.38 1.15 1.15 1.15h6.05c.58 0 .88-.29.88-.86 0-.58-.3-.87-.88-.87h-5.12V7.22h4.74c.6 0 .88-.29.88-.86 0-.58-.29-.86-.88-.86h-4.74V2.2h5.12c.58 0 .88-.3.88-.88 0-.56-.3-.85-.88-.85zm33.6 0c-.62 0-.93.3-.93.9 0 .61.3.91.93.91h3.3v9.15c0 .74.36 1.12 1.08 1.12.73 0 1.09-.38 1.09-1.12V2.29h3.3c.62 0 .93-.3.93-.9 0-.6-.31-.9-.93-.9z" fill="#4492fd" stroke="#000" stroke-width=".26"/></g></svg>
